<svg width="194" height="59" viewBox="0 0 194 59" fill="none" xmlns="http://www.w3.org/2000/svg">
<rect width="194" height="59" fill="black"/>
<path d="M61.5664 36H58.9209V25.3389H53.7969V36H51.1602V23.2031H61.5664V36ZM63.3242 31.1572C63.3242 30.2139 63.5059 29.373 63.8691 28.6348C64.2324 27.8965 64.7539 27.3252 65.4336 26.9209C66.1191 26.5166 66.9131 26.3145 67.8154 26.3145C69.0986 26.3145 70.1445 26.707 70.9531 27.4922C71.7676 28.2773 72.2217 29.3438 72.3154 30.6914L72.333 31.3418C72.333 32.8008 71.9258 33.9727 71.1113 34.8574C70.2969 35.7363 69.2041 36.1758 67.833 36.1758C66.4619 36.1758 65.3662 35.7363 64.5459 34.8574C63.7314 33.9785 63.3242 32.7832 63.3242 31.2715V31.1572ZM65.8643 31.3418C65.8643 32.2441 66.0342 32.9355 66.374 33.416C66.7139 33.8906 67.2002 34.1279 67.833 34.1279C68.4482 34.1279 68.9287 33.8936 69.2744 33.4248C69.6201 32.9502 69.793 32.1943 69.793 31.1572C69.793 30.2725 69.6201 29.5869 69.2744 29.1006C68.9287 28.6143 68.4424 28.3711 67.8154 28.3711C67.1943 28.3711 66.7139 28.6143 66.374 29.1006C66.0342 29.5811 65.8643 30.3281 65.8643 31.3418ZM73.3965 33.9521C73.9707 33.3428 74.3604 32.7393 74.5654 32.1416C74.7705 31.5439 74.8848 30.6973 74.9082 29.6016L74.9785 26.4902H81.9746V33.9521H83.3457V38.8564H80.8057V36H75.1719V38.8564H72.5791V33.9521H73.3965ZM76.3936 33.9521H79.4434V28.5908H77.4658L77.4482 29.7334C77.3955 31.4795 77.0439 32.8857 76.3936 33.9521ZM93.04 31.333C93.04 32.7979 92.7061 33.9727 92.0381 34.8574C91.376 35.7363 90.4795 36.1758 89.3486 36.1758C88.3877 36.1758 87.6113 35.8418 87.0195 35.1738V39.6562H84.4795V26.4902H86.835L86.9229 27.4219C87.5381 26.6836 88.3408 26.3145 89.3311 26.3145C90.5029 26.3145 91.4141 26.748 92.0645 27.6152C92.7148 28.4824 93.04 29.6777 93.04 31.2012V31.333ZM90.5 31.1484C90.5 30.2637 90.3418 29.5811 90.0254 29.1006C89.7148 28.6201 89.2607 28.3799 88.6631 28.3799C87.8662 28.3799 87.3184 28.6846 87.0195 29.2939V33.1875C87.3301 33.8145 87.8838 34.1279 88.6807 34.1279C89.8936 34.1279 90.5 33.1348 90.5 31.1484ZM94.2266 31.1572C94.2266 30.2139 94.4082 29.373 94.7715 28.6348C95.1348 27.8965 95.6562 27.3252 96.3359 26.9209C97.0215 26.5166 97.8154 26.3145 98.7178 26.3145C100.001 26.3145 101.047 26.707 101.855 27.4922C102.67 28.2773 103.124 29.3438 103.218 30.6914L103.235 31.3418C103.235 32.8008 102.828 33.9727 102.014 34.8574C101.199 35.7363 100.106 36.1758 98.7354 36.1758C97.3643 36.1758 96.2686 35.7363 95.4482 34.8574C94.6338 33.9785 94.2266 32.7832 94.2266 31.2715V31.1572ZM96.7666 31.3418C96.7666 32.2441 96.9365 32.9355 97.2764 33.416C97.6162 33.8906 98.1025 34.1279 98.7354 34.1279C99.3506 34.1279 99.8311 33.8936 100.177 33.4248C100.522 32.9502 100.695 32.1943 100.695 31.1572C100.695 30.2725 100.522 29.5869 100.177 29.1006C99.8311 28.6143 99.3447 28.3711 98.7178 28.3711C98.0967 28.3711 97.6162 28.6143 97.2764 29.1006C96.9365 29.5811 96.7666 30.3281 96.7666 31.3418ZM109.52 27.0176C110.738 27.0176 111.711 27.4219 112.438 28.2305C113.164 29.0391 113.527 30.1377 113.527 31.5264V31.6494C113.527 33.0205 113.123 34.1191 112.314 34.9453C111.506 35.7715 110.419 36.1846 109.054 36.1846C107.683 36.1846 106.59 35.7393 105.775 34.8486C104.967 33.9521 104.562 32.7363 104.562 31.2012V30.7793C104.574 28.6406 104.935 26.9678 105.644 25.7607C106.358 24.5479 107.431 23.7832 108.86 23.4668C109.61 23.3027 110.094 23.1416 110.311 22.9834C110.527 22.8193 110.636 22.5938 110.636 22.3066H112.692C112.692 23.2266 112.443 23.918 111.945 24.3809C111.453 24.8438 110.574 25.2012 109.309 25.4531C108.559 25.6055 107.967 25.9014 107.533 26.3408C107.1 26.7803 106.807 27.3984 106.654 28.1953C107.463 27.4102 108.418 27.0176 109.52 27.0176ZM109.036 29.0742C108.433 29.0742 107.958 29.2764 107.612 29.6807C107.272 30.085 107.103 30.7412 107.103 31.6494C107.103 32.458 107.27 33.0762 107.604 33.5039C107.938 33.9258 108.421 34.1367 109.054 34.1367C109.669 34.1367 110.144 33.9287 110.478 33.5127C110.812 33.0967 110.981 32.4844 110.987 31.6758V31.4648C110.987 30.6855 110.814 30.0938 110.469 29.6895C110.129 29.2793 109.651 29.0742 109.036 29.0742ZM123.134 36H120.585V32.3438H117.43V36H114.89V26.4902H117.43V30.3047H120.585V26.4902H123.134V36ZM129.479 36.1758C128.085 36.1758 126.948 35.748 126.069 34.8926C125.196 34.0371 124.76 32.8975 124.76 31.4736V31.2275C124.76 30.2725 124.944 29.4199 125.313 28.6699C125.683 27.9141 126.204 27.334 126.878 26.9297C127.558 26.5195 128.331 26.3145 129.198 26.3145C130.499 26.3145 131.521 26.7246 132.266 27.5449C133.016 28.3652 133.391 29.5283 133.391 31.0342V32.0713H127.335C127.417 32.6924 127.663 33.1904 128.073 33.5654C128.489 33.9404 129.014 34.1279 129.646 34.1279C130.625 34.1279 131.39 33.7734 131.94 33.0645L133.188 34.4619C132.808 35.001 132.292 35.4229 131.642 35.7275C130.991 36.0264 130.271 36.1758 129.479 36.1758ZM129.189 28.3711C128.686 28.3711 128.275 28.541 127.959 28.8809C127.648 29.2207 127.449 29.707 127.361 30.3398H130.895V30.1377C130.883 29.5752 130.73 29.1416 130.438 28.8369C130.145 28.5264 129.729 28.3711 129.189 28.3711ZM139.218 36.1758C137.823 36.1758 136.687 35.748 135.808 34.8926C134.935 34.0371 134.498 32.8975 134.498 31.4736V31.2275C134.498 30.2725 134.683 29.4199 135.052 28.6699C135.421 27.9141 135.942 27.334 136.616 26.9297C137.296 26.5195 138.069 26.3145 138.937 26.3145C140.237 26.3145 141.26 26.7246 142.004 27.5449C142.754 28.3652 143.129 29.5283 143.129 31.0342V32.0713H137.073C137.155 32.6924 137.401 33.1904 137.812 33.5654C138.228 33.9404 138.752 34.1279 139.385 34.1279C140.363 34.1279 141.128 33.7734 141.679 33.0645L142.927 34.4619C142.546 35.001 142.03 35.4229 141.38 35.7275C140.729 36.0264 140.009 36.1758 139.218 36.1758ZM138.928 28.3711C138.424 28.3711 138.014 28.541 137.697 28.8809C137.387 29.2207 137.188 29.707 137.1 30.3398H140.633V30.1377C140.621 29.5752 140.469 29.1416 140.176 28.8369C139.883 28.5264 139.467 28.3711 138.928 28.3711Z" fill="#F8F200"/>
</svg>
