<svg width="390" height="126" viewBox="0 0 390 126" fill="none" xmlns="http://www.w3.org/2000/svg">
<g clip-path="url(#clip0_14_320)">
<path d="M16 4C9.37333 4 4 9.37333 4 16C4 22.6267 9.37333 28 16 28C17.1067 28 18 27.1067 18 26C18 25.48 17.8 25.0133 17.48 24.6533C17.1733 24.3067 16.9733 23.84 16.9733 23.3333C16.9733 22.2267 17.8667 21.3333 18.9733 21.3333H21.3333C25.0133 21.3333 28 18.3467 28 14.6667C28 8.77333 22.6267 4 16 4ZM8.66667 16C7.56 16 6.66667 15.1067 6.66667 14C6.66667 12.8933 7.56 12 8.66667 12C9.77333 12 10.6667 12.8933 10.6667 14C10.6667 15.1067 9.77333 16 8.66667 16ZM12.6667 10.6667C11.56 10.6667 10.6667 9.77333 10.6667 8.66667C10.6667 7.56 11.56 6.66667 12.6667 6.66667C13.7733 6.66667 14.6667 7.56 14.6667 8.66667C14.6667 9.77333 13.7733 10.6667 12.6667 10.6667ZM19.3333 10.6667C18.2267 10.6667 17.3333 9.77333 17.3333 8.66667C17.3333 7.56 18.2267 6.66667 19.3333 6.66667C20.44 6.66667 21.3333 7.56 21.3333 8.66667C21.3333 9.77333 20.44 10.6667 19.3333 10.6667ZM23.3333 16C22.2267 16 21.3333 15.1067 21.3333 14C21.3333 12.8933 22.2267 12 23.3333 12C24.44 12 25.3333 12.8933 25.3333 14C25.3333 15.1067 24.44 16 23.3333 16Z" fill="black"/>
</g>
<path d="M50.1826 23V18.0166H47.2295L44.584 23H42.7822L45.7529 17.5508C44.1006 16.9004 43.2744 15.7373 43.2744 14.0615C43.2744 12.8428 43.6729 11.8965 44.4697 11.2227C45.2725 10.543 46.3857 10.2031 47.8096 10.2031H51.8789V23H50.1826ZM44.9619 14.0615C44.9619 14.835 45.2021 15.4561 45.6826 15.9248C46.1689 16.3936 46.8428 16.6309 47.7041 16.6367H50.1826V11.5918H47.7832C46.8691 11.5918 46.1689 11.8086 45.6826 12.2422C45.2021 12.6758 44.9619 13.2822 44.9619 14.0615ZM62.7246 18.3506C62.7246 19.7979 62.3936 20.9639 61.7314 21.8486C61.0693 22.7334 60.1729 23.1758 59.042 23.1758C57.8877 23.1758 56.9795 22.8096 56.3174 22.0771V26.6562H54.6914V13.4902H56.1768L56.2559 14.5449C56.918 13.7246 57.8379 13.3145 59.0156 13.3145C60.1582 13.3145 61.0605 13.7451 61.7227 14.6064C62.3906 15.4678 62.7246 16.666 62.7246 18.2012V18.3506ZM61.0986 18.166C61.0986 17.0938 60.8701 16.2471 60.4131 15.626C59.9561 15.0049 59.3291 14.6943 58.5322 14.6943C57.5479 14.6943 56.8096 15.1309 56.3174 16.0039V20.5479C56.8037 21.415 57.5479 21.8486 58.5498 21.8486C59.3291 21.8486 59.9473 21.541 60.4043 20.9258C60.8672 20.3047 61.0986 19.3848 61.0986 18.166ZM67.7607 18.9482H66.5742V23H64.9395V13.4902H66.5742V17.5156H67.6377L70.8369 13.4902H72.8057L69.0439 18.0605L73.1221 23H71.0566L67.7607 18.9482ZM80.6719 13.4902H82.2979V23H80.6719V16.0654L76.2861 23H74.6602V13.4902H76.2861V20.4336L80.6719 13.4902ZM88.8545 23.1758C87.5654 23.1758 86.5166 22.7539 85.708 21.9102C84.8994 21.0605 84.4951 19.9268 84.4951 18.5088V18.21C84.4951 17.2666 84.6738 16.4258 85.0312 15.6875C85.3945 14.9434 85.8984 14.3633 86.543 13.9473C87.1934 13.5254 87.8965 13.3145 88.6523 13.3145C89.8887 13.3145 90.8496 13.7217 91.5352 14.5361C92.2207 15.3506 92.5635 16.5166 92.5635 18.0342V18.7109H86.1211C86.1445 19.6484 86.417 20.4072 86.9385 20.9873C87.4658 21.5615 88.1338 21.8486 88.9424 21.8486C89.5166 21.8486 90.0029 21.7314 90.4014 21.4971C90.7998 21.2627 91.1484 20.9521 91.4473 20.5654L92.4404 21.3389C91.6436 22.5635 90.4482 23.1758 88.8545 23.1758ZM88.6523 14.6504C87.9961 14.6504 87.4453 14.8906 87 15.3711C86.5547 15.8457 86.2793 16.5137 86.1738 17.375H90.9375V17.252C90.8906 16.4258 90.668 15.7871 90.2695 15.3359C89.8711 14.8789 89.332 14.6504 88.6523 14.6504ZM106.688 23H105.062V18.9395H100.693V23H99.0586V13.4902H100.693V17.6123H105.062V13.4902H106.688V23ZM115.178 23C115.084 22.8125 115.008 22.4785 114.949 21.998C114.193 22.7832 113.291 23.1758 112.242 23.1758C111.305 23.1758 110.534 22.9121 109.931 22.3848C109.333 21.8516 109.034 21.1777 109.034 20.3633C109.034 19.373 109.409 18.6055 110.159 18.0605C110.915 17.5098 111.976 17.2344 113.341 17.2344H114.923V16.4873C114.923 15.9189 114.753 15.4678 114.413 15.1338C114.073 14.7939 113.572 14.624 112.91 14.624C112.33 14.624 111.844 14.7705 111.451 15.0635C111.059 15.3564 110.862 15.7109 110.862 16.127H109.228C109.228 15.6523 109.395 15.1953 109.729 14.7559C110.068 14.3105 110.525 13.959 111.1 13.7012C111.68 13.4434 112.315 13.3145 113.007 13.3145C114.103 13.3145 114.961 13.5898 115.582 14.1406C116.203 14.6855 116.525 15.4385 116.549 16.3994V20.7764C116.549 21.6494 116.66 22.3438 116.883 22.8594V23H115.178ZM112.479 21.7607C112.989 21.7607 113.473 21.6289 113.93 21.3652C114.387 21.1016 114.718 20.7588 114.923 20.3369V18.3857H113.648C111.656 18.3857 110.66 18.9688 110.66 20.1348C110.66 20.6445 110.83 21.043 111.17 21.3301C111.51 21.6172 111.946 21.7607 112.479 21.7607ZM122.912 21.8486C123.492 21.8486 123.999 21.6729 124.433 21.3213C124.866 20.9697 125.106 20.5303 125.153 20.0029H126.691C126.662 20.5479 126.475 21.0664 126.129 21.5586C125.783 22.0508 125.32 22.4434 124.74 22.7363C124.166 23.0293 123.557 23.1758 122.912 23.1758C121.617 23.1758 120.586 22.7451 119.818 21.8838C119.057 21.0166 118.676 19.833 118.676 18.333V18.0605C118.676 17.1348 118.846 16.3115 119.186 15.5908C119.525 14.8701 120.012 14.3105 120.645 13.9121C121.283 13.5137 122.036 13.3145 122.903 13.3145C123.97 13.3145 124.854 13.6338 125.558 14.2725C126.267 14.9111 126.645 15.7402 126.691 16.7598H125.153C125.106 16.1445 124.872 15.6406 124.45 15.248C124.034 14.8496 123.519 14.6504 122.903 14.6504C122.077 14.6504 121.436 14.9492 120.979 15.5469C120.527 16.1387 120.302 16.9971 120.302 18.1221V18.4297C120.302 19.5254 120.527 20.3691 120.979 20.9609C121.43 21.5527 122.074 21.8486 122.912 21.8486ZM130.295 16.7686H132.765C133.843 16.7803 134.695 17.0615 135.322 17.6123C135.949 18.1631 136.263 18.9102 136.263 19.8535C136.263 20.8027 135.94 21.5645 135.296 22.1387C134.651 22.7129 133.784 23 132.694 23H128.669V13.4902H130.295V16.7686ZM139.655 23H138.021V13.4902H139.655V23ZM130.295 18.0957V21.6729H132.712C133.321 21.6729 133.793 21.5176 134.127 21.207C134.461 20.8906 134.628 20.46 134.628 19.915C134.628 19.3877 134.464 18.957 134.136 18.623C133.813 18.2832 133.359 18.1074 132.773 18.0957H130.295ZM144.173 13.4902V21.6729H147.653V13.4902H149.279V21.6729H152.751V13.4902H154.386V21.6729H155.722L155.563 25.8213H154.104V23H142.538V13.4902H144.173ZM161.435 23.1758C160.146 23.1758 159.097 22.7539 158.288 21.9102C157.479 21.0605 157.075 19.9268 157.075 18.5088V18.21C157.075 17.2666 157.254 16.4258 157.611 15.6875C157.975 14.9434 158.479 14.3633 159.123 13.9473C159.773 13.5254 160.477 13.3145 161.232 13.3145C162.469 13.3145 163.43 13.7217 164.115 14.5361C164.801 15.3506 165.144 16.5166 165.144 18.0342V18.7109H158.701C158.725 19.6484 158.997 20.4072 159.519 20.9873C160.046 21.5615 160.714 21.8486 161.522 21.8486C162.097 21.8486 162.583 21.7314 162.981 21.4971C163.38 21.2627 163.729 20.9521 164.027 20.5654L165.021 21.3389C164.224 22.5635 163.028 23.1758 161.435 23.1758ZM161.232 14.6504C160.576 14.6504 160.025 14.8906 159.58 15.3711C159.135 15.8457 158.859 16.5137 158.754 17.375H163.518V17.252C163.471 16.4258 163.248 15.7871 162.85 15.3359C162.451 14.8789 161.912 14.6504 161.232 14.6504ZM174.803 23H173.177V18.9395H168.809V23H167.174V13.4902H168.809V17.6123H173.177V13.4902H174.803V23ZM185.191 23H183.565V18.9395H179.197V23H177.562V13.4902H179.197V17.6123H183.565V13.4902H185.191V23ZM189.586 16.7686H192.056C193.134 16.7803 193.986 17.0615 194.613 17.6123C195.24 18.1631 195.554 18.9102 195.554 19.8535C195.554 20.8027 195.231 21.5645 194.587 22.1387C193.942 22.7129 193.075 23 191.985 23H187.96V13.4902H189.586V16.7686ZM198.946 23H197.312V13.4902H198.946V23ZM189.586 18.0957V21.6729H192.003C192.612 21.6729 193.084 21.5176 193.418 21.207C193.752 20.8906 193.919 20.46 193.919 19.915C193.919 19.3877 193.755 18.957 193.427 18.623C193.104 18.2832 192.65 18.1074 192.064 18.0957H189.586ZM205.731 23.1758C204.442 23.1758 203.394 22.7539 202.585 21.9102C201.776 21.0605 201.372 19.9268 201.372 18.5088V18.21C201.372 17.2666 201.551 16.4258 201.908 15.6875C202.271 14.9434 202.775 14.3633 203.42 13.9473C204.07 13.5254 204.773 13.3145 205.529 13.3145C206.766 13.3145 207.727 13.7217 208.412 14.5361C209.098 15.3506 209.44 16.5166 209.44 18.0342V18.7109H202.998C203.021 19.6484 203.294 20.4072 203.815 20.9873C204.343 21.5615 205.011 21.8486 205.819 21.8486C206.394 21.8486 206.88 21.7314 207.278 21.4971C207.677 21.2627 208.025 20.9521 208.324 20.5654L209.317 21.3389C208.521 22.5635 207.325 23.1758 205.731 23.1758ZM205.529 14.6504C204.873 14.6504 204.322 14.8906 203.877 15.3711C203.432 15.8457 203.156 16.5137 203.051 17.375H207.814V17.252C207.768 16.4258 207.545 15.7871 207.146 15.3359C206.748 14.8789 206.209 14.6504 205.529 14.6504ZM215.936 13.4902H217.57V21.6729H221.947V13.4902H223.573V21.6729H224.707L224.549 25.8213H223.09V23H215.936V13.4902ZM226.614 23V13.4902H230.323C231.589 13.4902 232.559 13.7129 233.232 14.1582C233.912 14.5977 234.252 15.2451 234.252 16.1006C234.252 16.54 234.12 16.9385 233.856 17.2959C233.593 17.6475 233.203 17.917 232.688 18.1045C233.262 18.2393 233.722 18.5029 234.067 18.8955C234.419 19.2881 234.595 19.7568 234.595 20.3018C234.595 21.1748 234.272 21.8428 233.628 22.3057C232.989 22.7686 232.084 23 230.912 23H226.614ZM228.24 18.8252V21.6904H230.93C231.609 21.6904 232.116 21.5645 232.45 21.3125C232.79 21.0605 232.96 20.7061 232.96 20.249C232.96 19.2998 232.263 18.8252 230.868 18.8252H228.24ZM228.24 17.5244H230.341C231.864 17.5244 232.626 17.0791 232.626 16.1885C232.626 15.2979 231.905 14.8379 230.464 14.8086H228.24V17.5244ZM240.694 23.1758C239.405 23.1758 238.356 22.7539 237.548 21.9102C236.739 21.0605 236.335 19.9268 236.335 18.5088V18.21C236.335 17.2666 236.514 16.4258 236.871 15.6875C237.234 14.9434 237.738 14.3633 238.383 13.9473C239.033 13.5254 239.736 13.3145 240.492 13.3145C241.729 13.3145 242.689 13.7217 243.375 14.5361C244.061 15.3506 244.403 16.5166 244.403 18.0342V18.7109H237.961C237.984 19.6484 238.257 20.4072 238.778 20.9873C239.306 21.5615 239.974 21.8486 240.782 21.8486C241.356 21.8486 241.843 21.7314 242.241 21.4971C242.64 21.2627 242.988 20.9521 243.287 20.5654L244.28 21.3389C243.483 22.5635 242.288 23.1758 240.694 23.1758ZM240.492 14.6504C239.836 14.6504 239.285 14.8906 238.84 15.3711C238.395 15.8457 238.119 16.5137 238.014 17.375H242.777V17.252C242.73 16.4258 242.508 15.7871 242.109 15.3359C241.711 14.8789 241.172 14.6504 240.492 14.6504ZM253.254 14.8086H250.063V23H248.438V14.8086H245.309V13.4902H253.254V14.8086ZM260.566 23C260.473 22.8125 260.396 22.4785 260.338 21.998C259.582 22.7832 258.68 23.1758 257.631 23.1758C256.693 23.1758 255.923 22.9121 255.319 22.3848C254.722 21.8516 254.423 21.1777 254.423 20.3633C254.423 19.373 254.798 18.6055 255.548 18.0605C256.304 17.5098 257.364 17.2344 258.729 17.2344H260.312V16.4873C260.312 15.9189 260.142 15.4678 259.802 15.1338C259.462 14.7939 258.961 14.624 258.299 14.624C257.719 14.624 257.232 14.7705 256.84 15.0635C256.447 15.3564 256.251 15.7109 256.251 16.127H254.616C254.616 15.6523 254.783 15.1953 255.117 14.7559C255.457 14.3105 255.914 13.959 256.488 13.7012C257.068 13.4434 257.704 13.3145 258.396 13.3145C259.491 13.3145 260.35 13.5898 260.971 14.1406C261.592 14.6855 261.914 15.4385 261.938 16.3994V20.7764C261.938 21.6494 262.049 22.3438 262.271 22.8594V23H260.566ZM257.868 21.7607C258.378 21.7607 258.861 21.6289 259.318 21.3652C259.775 21.1016 260.106 20.7588 260.312 20.3369V18.3857H259.037C257.045 18.3857 256.049 18.9688 256.049 20.1348C256.049 20.6445 256.219 21.043 256.559 21.3301C256.898 21.6172 257.335 21.7607 257.868 21.7607Z" fill="black"/>
<g clip-path="url(#clip1_14_320)">
<path d="M25.3334 58.9999L27 55.3333L30.6667 53.6666L27 51.9999L25.3334 48.3333L23.6667 51.9999L20 53.6666L23.6667 55.3333L25.3334 58.9999ZM15.3334 59.6666L12 52.3333L8.66671 59.6666L1.33337 62.9999L8.66671 66.3333L12 73.6666L15.3334 66.3333L22.6667 62.9999L15.3334 59.6666ZM25.3334 66.9999L23.6667 70.6666L20 72.3333L23.6667 73.9999L25.3334 77.6666L27 73.9999L30.6667 72.3333L27 70.6666L25.3334 66.9999Z" fill="black"/>
</g>
<path d="M46.8076 64.252H45.252V70H43.5645V57.2031H45.252V62.8457H46.5703L51.0439 57.2031H53.1445L48.2578 63.4082L53.5049 70H51.4395L46.8076 64.252ZM62.6191 65.3506C62.6191 66.7979 62.2881 67.9639 61.626 68.8486C60.9639 69.7334 60.0674 70.1758 58.9365 70.1758C57.7822 70.1758 56.874 69.8096 56.2119 69.0771V73.6562H54.5859V60.4902H56.0713L56.1504 61.5449C56.8125 60.7246 57.7324 60.3145 58.9102 60.3145C60.0527 60.3145 60.9551 60.7451 61.6172 61.6064C62.2852 62.4678 62.6191 63.666 62.6191 65.2012V65.3506ZM60.9932 65.166C60.9932 64.0938 60.7646 63.2471 60.3076 62.626C59.8506 62.0049 59.2236 61.6943 58.4268 61.6943C57.4424 61.6943 56.7041 62.1309 56.2119 63.0039V67.5479C56.6982 68.415 57.4424 68.8486 58.4443 68.8486C59.2236 68.8486 59.8418 68.541 60.2988 67.9258C60.7617 67.3047 60.9932 66.3848 60.9932 65.166ZM70.8457 60.4902H72.4717V70H70.8457V63.0654L66.46 70H64.834V60.4902H66.46V67.4336L70.8457 60.4902ZM78.8965 68.8486C79.4766 68.8486 79.9834 68.6729 80.417 68.3213C80.8506 67.9697 81.0908 67.5303 81.1377 67.0029H82.6758C82.6465 67.5479 82.459 68.0664 82.1133 68.5586C81.7676 69.0508 81.3047 69.4434 80.7246 69.7363C80.1504 70.0293 79.541 70.1758 78.8965 70.1758C77.6016 70.1758 76.5703 69.7451 75.8027 68.8838C75.041 68.0166 74.6602 66.833 74.6602 65.333V65.0605C74.6602 64.1348 74.8301 63.3115 75.1699 62.5908C75.5098 61.8701 75.9961 61.3105 76.6289 60.9121C77.2676 60.5137 78.0205 60.3145 78.8877 60.3145C79.9541 60.3145 80.8389 60.6338 81.542 61.2725C82.251 61.9111 82.6289 62.7402 82.6758 63.7598H81.1377C81.0908 63.1445 80.8564 62.6406 80.4346 62.248C80.0186 61.8496 79.5029 61.6504 78.8877 61.6504C78.0615 61.6504 77.4199 61.9492 76.9629 62.5469C76.5117 63.1387 76.2861 63.9971 76.2861 65.1221V65.4297C76.2861 66.5254 76.5117 67.3691 76.9629 67.9609C77.4141 68.5527 78.0586 68.8486 78.8965 68.8486ZM91.5703 61.8086H88.3799V70H86.7539V61.8086H83.625V60.4902H91.5703V61.8086ZM98.8828 70C98.7891 69.8125 98.7129 69.4785 98.6543 68.998C97.8984 69.7832 96.9961 70.1758 95.9473 70.1758C95.0098 70.1758 94.2393 69.9121 93.6357 69.3848C93.0381 68.8516 92.7393 68.1777 92.7393 67.3633C92.7393 66.373 93.1143 65.6055 93.8643 65.0605C94.6201 64.5098 95.6807 64.2344 97.0459 64.2344H98.6279V63.4873C98.6279 62.9189 98.458 62.4678 98.1182 62.1338C97.7783 61.7939 97.2773 61.624 96.6152 61.624C96.0352 61.624 95.5488 61.7705 95.1562 62.0635C94.7637 62.3564 94.5674 62.7109 94.5674 63.127H92.9326C92.9326 62.6523 93.0996 62.1953 93.4336 61.7559C93.7734 61.3105 94.2305 60.959 94.8047 60.7012C95.3848 60.4434 96.0205 60.3145 96.7119 60.3145C97.8076 60.3145 98.666 60.5898 99.2871 61.1406C99.9082 61.6855 100.23 62.4385 100.254 63.3994V67.7764C100.254 68.6494 100.365 69.3438 100.588 69.8594V70H98.8828ZM96.1846 68.7607C96.6943 68.7607 97.1777 68.6289 97.6348 68.3652C98.0918 68.1016 98.4229 67.7588 98.6279 67.3369V65.3857H97.3535C95.3613 65.3857 94.3652 65.9688 94.3652 67.1348C94.3652 67.6445 94.5352 68.043 94.875 68.3301C95.2148 68.6172 95.6514 68.7607 96.1846 68.7607ZM110.599 60.4902V70H108.964V61.835H105.729L105.536 65.3945C105.431 67.0293 105.155 68.1982 104.71 68.9014C104.271 69.6045 103.57 69.9707 102.609 70H101.959V68.5674L102.425 68.5322C102.952 68.4736 103.33 68.1689 103.559 67.6182C103.787 67.0674 103.934 66.0479 103.998 64.5596L104.174 60.4902H110.599ZM114.984 63.7686H117.454C118.532 63.7803 119.385 64.0615 120.012 64.6123C120.639 65.1631 120.952 65.9102 120.952 66.8535C120.952 67.8027 120.63 68.5645 119.985 69.1387C119.341 69.7129 118.474 70 117.384 70H113.358V60.4902H114.984V63.7686ZM114.984 65.0957V68.6729H117.401C118.011 68.6729 118.482 68.5176 118.816 68.207C119.15 67.8906 119.317 67.46 119.317 66.915C119.317 66.3877 119.153 65.957 118.825 65.623C118.503 65.2832 118.049 65.1074 117.463 65.0957H114.984ZM130.752 70H129.126V65.9395H124.758V70H123.123V60.4902H124.758V64.6123H129.126V60.4902H130.752V70ZM139.242 70C139.148 69.8125 139.072 69.4785 139.014 68.998C138.258 69.7832 137.355 70.1758 136.307 70.1758C135.369 70.1758 134.599 69.9121 133.995 69.3848C133.397 68.8516 133.099 68.1777 133.099 67.3633C133.099 66.373 133.474 65.6055 134.224 65.0605C134.979 64.5098 136.04 64.2344 137.405 64.2344H138.987V63.4873C138.987 62.9189 138.817 62.4678 138.478 62.1338C138.138 61.7939 137.637 61.624 136.975 61.624C136.395 61.624 135.908 61.7705 135.516 62.0635C135.123 62.3564 134.927 62.7109 134.927 63.127H133.292C133.292 62.6523 133.459 62.1953 133.793 61.7559C134.133 61.3105 134.59 60.959 135.164 60.7012C135.744 60.4434 136.38 60.3145 137.071 60.3145C138.167 60.3145 139.025 60.5898 139.646 61.1406C140.268 61.6855 140.59 62.4385 140.613 63.3994V67.7764C140.613 68.6494 140.725 69.3438 140.947 69.8594V70H139.242ZM136.544 68.7607C137.054 68.7607 137.537 68.6289 137.994 68.3652C138.451 68.1016 138.782 67.7588 138.987 67.3369V65.3857H137.713C135.721 65.3857 134.725 65.9688 134.725 67.1348C134.725 67.6445 134.895 68.043 135.234 68.3301C135.574 68.6172 136.011 68.7607 136.544 68.7607ZM150.431 60.4902V70H148.796V66.2998H146.344L144.103 70H142.345L144.735 66.0537C144.126 65.8311 143.657 65.4883 143.329 65.0254C143.007 64.5566 142.846 64.0117 142.846 63.3906C142.846 62.5234 143.171 61.8262 143.821 61.2988C144.472 60.7656 145.342 60.4961 146.432 60.4902H150.431ZM144.48 63.4082C144.48 63.8711 144.639 64.2461 144.955 64.5332C145.271 64.8145 145.69 64.958 146.212 64.9639H148.796V61.8086H146.458C145.854 61.8086 145.374 61.958 145.017 62.2568C144.659 62.5498 144.48 62.9336 144.48 63.4082ZM164.687 70H163.052V66.5547C162.337 66.7422 161.604 66.8359 160.854 66.8359C159.665 66.8359 158.757 66.5312 158.13 65.9219C157.509 65.3125 157.192 64.4453 157.181 63.3203V60.4814H158.807V63.373C158.836 64.791 159.519 65.5 160.854 65.5C161.604 65.5 162.337 65.4062 163.052 65.2188V60.4902H164.687V70ZM171.243 70.1758C169.954 70.1758 168.905 69.7539 168.097 68.9102C167.288 68.0605 166.884 66.9268 166.884 65.5088V65.21C166.884 64.2666 167.062 63.4258 167.42 62.6875C167.783 61.9434 168.287 61.3633 168.932 60.9473C169.582 60.5254 170.285 60.3145 171.041 60.3145C172.277 60.3145 173.238 60.7217 173.924 61.5361C174.609 62.3506 174.952 63.5166 174.952 65.0342V65.7109H168.51C168.533 66.6484 168.806 67.4072 169.327 67.9873C169.854 68.5615 170.522 68.8486 171.331 68.8486C171.905 68.8486 172.392 68.7314 172.79 68.4971C173.188 68.2627 173.537 67.9521 173.836 67.5654L174.829 68.3389C174.032 69.5635 172.837 70.1758 171.243 70.1758ZM171.041 61.6504C170.385 61.6504 169.834 61.8906 169.389 62.3711C168.943 62.8457 168.668 63.5137 168.562 64.375H173.326V64.252C173.279 63.4258 173.057 62.7871 172.658 62.3359C172.26 61.8789 171.721 61.6504 171.041 61.6504ZM183.803 61.8086H180.612V70H178.986V61.8086H175.857V60.4902H183.803V61.8086ZM188.347 65.9482H187.16V70H185.525V60.4902H187.16V64.5156H188.224L191.423 60.4902H193.392L189.63 65.0605L193.708 70H191.643L188.347 65.9482ZM194.481 65.1572C194.481 64.2256 194.663 63.3877 195.026 62.6436C195.396 61.8994 195.905 61.3252 196.556 60.9209C197.212 60.5166 197.959 60.3145 198.797 60.3145C200.092 60.3145 201.138 60.7627 201.935 61.6592C202.737 62.5557 203.139 63.748 203.139 65.2363V65.3506C203.139 66.2764 202.96 67.1084 202.603 67.8467C202.251 68.5791 201.744 69.1504 201.082 69.5605C200.426 69.9707 199.67 70.1758 198.814 70.1758C197.525 70.1758 196.479 69.7275 195.677 68.8311C194.88 67.9346 194.481 66.748 194.481 65.2715V65.1572ZM196.116 65.3506C196.116 66.4053 196.359 67.252 196.846 67.8906C197.338 68.5293 197.994 68.8486 198.814 68.8486C199.641 68.8486 200.297 68.5264 200.783 67.8818C201.27 67.2314 201.513 66.3232 201.513 65.1572C201.513 64.1143 201.264 63.2705 200.766 62.626C200.273 61.9756 199.617 61.6504 198.797 61.6504C197.994 61.6504 197.347 61.9697 196.854 62.6084C196.362 63.2471 196.116 64.1611 196.116 65.3506ZM208.992 68.8486C209.572 68.8486 210.079 68.6729 210.513 68.3213C210.946 67.9697 211.187 67.5303 211.233 67.0029H212.771C212.742 67.5479 212.555 68.0664 212.209 68.5586C211.863 69.0508 211.4 69.4434 210.82 69.7363C210.246 70.0293 209.637 70.1758 208.992 70.1758C207.697 70.1758 206.666 69.7451 205.898 68.8838C205.137 68.0166 204.756 66.833 204.756 65.333V65.0605C204.756 64.1348 204.926 63.3115 205.266 62.5908C205.605 61.8701 206.092 61.3105 206.725 60.9121C207.363 60.5137 208.116 60.3145 208.983 60.3145C210.05 60.3145 210.935 60.6338 211.638 61.2725C212.347 61.9111 212.725 62.7402 212.771 63.7598H211.233C211.187 63.1445 210.952 62.6406 210.53 62.248C210.114 61.8496 209.599 61.6504 208.983 61.6504C208.157 61.6504 207.516 61.9492 207.059 62.5469C206.607 63.1387 206.382 63.9971 206.382 65.1221V65.4297C206.382 66.5254 206.607 67.3691 207.059 67.9609C207.51 68.5527 208.154 68.8486 208.992 68.8486ZM221.666 61.8086H218.476V70H216.85V61.8086H213.721V60.4902H221.666V61.8086ZM225.023 63.7686H227.493C228.571 63.7803 229.424 64.0615 230.051 64.6123C230.678 65.1631 230.991 65.9102 230.991 66.8535C230.991 67.8027 230.669 68.5645 230.024 69.1387C229.38 69.7129 228.513 70 227.423 70H223.397V60.4902H225.023V63.7686ZM225.023 65.0957V68.6729H227.44C228.05 68.6729 228.521 68.5176 228.855 68.207C229.189 67.8906 229.356 67.46 229.356 66.915C229.356 66.3877 229.192 65.957 228.864 65.623C228.542 65.2832 228.088 65.1074 227.502 65.0957H225.023ZM243.639 60.4902H245.265V70H243.639V63.0654L239.253 70H237.627V60.4902H239.253V67.4336L243.639 60.4902ZM253.104 63.0918C253.104 62.6465 252.935 62.2949 252.595 62.0371C252.255 61.7734 251.789 61.6416 251.197 61.6416C250.623 61.6416 250.143 61.791 249.756 62.0898C249.375 62.3887 249.185 62.7402 249.185 63.1445H247.567C247.567 62.3184 247.913 61.6416 248.604 61.1143C249.296 60.5869 250.16 60.3232 251.197 60.3232C252.311 60.3232 253.178 60.5635 253.799 61.0439C254.42 61.5186 254.73 62.1982 254.73 63.083C254.73 63.5107 254.602 63.9033 254.344 64.2607C254.086 64.6182 253.72 64.9023 253.245 65.1133C254.353 65.4883 254.906 66.2266 254.906 67.3281C254.906 68.2012 254.569 68.8926 253.896 69.4023C253.222 69.9121 252.322 70.167 251.197 70.167C250.102 70.167 249.196 69.9004 248.481 69.3672C247.772 68.8281 247.418 68.1016 247.418 67.1875H249.035C249.035 67.6504 249.24 68.0488 249.65 68.3828C250.066 68.7109 250.582 68.875 251.197 68.875C251.818 68.875 252.319 68.7314 252.7 68.4443C253.081 68.1572 253.271 67.7852 253.271 67.3281C253.271 66.7949 253.11 66.4141 252.788 66.1855C252.472 65.9512 251.977 65.834 251.303 65.834H249.677V64.4629H251.443C252.551 64.4336 253.104 63.9766 253.104 63.0918ZM256.585 65.1572C256.585 64.2256 256.767 63.3877 257.13 62.6436C257.499 61.8994 258.009 61.3252 258.659 60.9209C259.315 60.5166 260.062 60.3145 260.9 60.3145C262.195 60.3145 263.241 60.7627 264.038 61.6592C264.841 62.5557 265.242 63.748 265.242 65.2363V65.3506C265.242 66.2764 265.063 67.1084 264.706 67.8467C264.354 68.5791 263.848 69.1504 263.186 69.5605C262.529 69.9707 261.773 70.1758 260.918 70.1758C259.629 70.1758 258.583 69.7275 257.78 68.8311C256.983 67.9346 256.585 66.748 256.585 65.2715V65.1572ZM258.22 65.3506C258.22 66.4053 258.463 67.252 258.949 67.8906C259.441 68.5293 260.098 68.8486 260.918 68.8486C261.744 68.8486 262.4 68.5264 262.887 67.8818C263.373 67.2314 263.616 66.3232 263.616 65.1572C263.616 64.1143 263.367 63.2705 262.869 62.626C262.377 61.9756 261.721 61.6504 260.9 61.6504C260.098 61.6504 259.45 61.9697 258.958 62.6084C258.466 63.2471 258.22 64.1611 258.22 65.3506ZM271.456 61.0352C272.651 61.0352 273.606 61.4365 274.321 62.2393C275.042 63.0361 275.402 64.0879 275.402 65.3945V65.5439C275.402 66.4404 275.229 67.2432 274.884 67.9521C274.538 68.6553 274.04 69.2031 273.39 69.5957C272.745 69.9824 272.001 70.1758 271.157 70.1758C269.88 70.1758 268.852 69.751 268.072 68.9014C267.293 68.0459 266.903 66.9004 266.903 65.4648V64.6738C266.903 62.6758 267.272 61.0879 268.011 59.9102C268.755 58.7324 269.851 58.0146 271.298 57.7568C272.118 57.6104 272.672 57.4316 272.959 57.2207C273.246 57.0098 273.39 56.7197 273.39 56.3506H274.726C274.726 57.083 274.559 57.6543 274.225 58.0645C273.896 58.4746 273.369 58.7646 272.643 58.9346L271.43 59.207C270.463 59.4355 269.736 59.8223 269.25 60.3672C268.77 60.9062 268.456 61.627 268.31 62.5293C269.171 61.5332 270.22 61.0352 271.456 61.0352ZM271.14 62.3711C270.343 62.3711 269.71 62.6406 269.241 63.1797C268.772 63.7129 268.538 64.4541 268.538 65.4033V65.5439C268.538 66.5635 268.772 67.3721 269.241 67.9697C269.716 68.5615 270.354 68.8574 271.157 68.8574C271.966 68.8574 272.604 68.5586 273.073 67.9609C273.542 67.3633 273.776 66.4902 273.776 65.3418C273.776 64.4453 273.539 63.7275 273.064 63.1885C272.596 62.6436 271.954 62.3711 271.14 62.3711ZM285.105 65.3506C285.105 66.7979 284.774 67.9639 284.112 68.8486C283.45 69.7334 282.554 70.1758 281.423 70.1758C280.269 70.1758 279.36 69.8096 278.698 69.0771V73.6562H277.072V60.4902H278.558L278.637 61.5449C279.299 60.7246 280.219 60.3145 281.396 60.3145C282.539 60.3145 283.441 60.7451 284.104 61.6064C284.771 62.4678 285.105 63.666 285.105 65.2012V65.3506ZM283.479 65.166C283.479 64.0938 283.251 63.2471 282.794 62.626C282.337 62.0049 281.71 61.6943 280.913 61.6943C279.929 61.6943 279.19 62.1309 278.698 63.0039V67.5479C279.185 68.415 279.929 68.8486 280.931 68.8486C281.71 68.8486 282.328 68.541 282.785 67.9258C283.248 67.3047 283.479 66.3848 283.479 65.166ZM293.051 70C292.957 69.8125 292.881 69.4785 292.822 68.998C292.066 69.7832 291.164 70.1758 290.115 70.1758C289.178 70.1758 288.407 69.9121 287.804 69.3848C287.206 68.8516 286.907 68.1777 286.907 67.3633C286.907 66.373 287.282 65.6055 288.032 65.0605C288.788 64.5098 289.849 64.2344 291.214 64.2344H292.796V63.4873C292.796 62.9189 292.626 62.4678 292.286 62.1338C291.946 61.7939 291.445 61.624 290.783 61.624C290.203 61.624 289.717 61.7705 289.324 62.0635C288.932 62.3564 288.735 62.7109 288.735 63.127H287.101C287.101 62.6523 287.268 62.1953 287.602 61.7559C287.941 61.3105 288.398 60.959 288.973 60.7012C289.553 60.4434 290.188 60.3145 290.88 60.3145C291.976 60.3145 292.834 60.5898 293.455 61.1406C294.076 61.6855 294.398 62.4385 294.422 63.3994V67.7764C294.422 68.6494 294.533 69.3438 294.756 69.8594V70H293.051ZM290.353 68.7607C290.862 68.7607 291.346 68.6289 291.803 68.3652C292.26 68.1016 292.591 67.7588 292.796 67.3369V65.3857H291.521C289.529 65.3857 288.533 65.9688 288.533 67.1348C288.533 67.6445 288.703 68.043 289.043 68.3301C289.383 68.6172 289.819 68.7607 290.353 68.7607ZM304.556 65.8691H303.413V70H301.787V65.8691H300.645L297.981 70H295.925L299.326 65.0781L296.25 60.4902H298.219L300.671 64.4277H301.787V60.4902H303.413V64.4277H304.521L306.99 60.4902H308.959L305.874 65.0869L309.275 70H307.219L304.556 65.8691ZM314.522 70.1758C313.233 70.1758 312.185 69.7539 311.376 68.9102C310.567 68.0605 310.163 66.9268 310.163 65.5088V65.21C310.163 64.2666 310.342 63.4258 310.699 62.6875C311.062 61.9434 311.566 61.3633 312.211 60.9473C312.861 60.5254 313.564 60.3145 314.32 60.3145C315.557 60.3145 316.518 60.7217 317.203 61.5361C317.889 62.3506 318.231 63.5166 318.231 65.0342V65.7109H311.789C311.812 66.6484 312.085 67.4072 312.606 67.9873C313.134 68.5615 313.802 68.8486 314.61 68.8486C315.185 68.8486 315.671 68.7314 316.069 68.4971C316.468 68.2627 316.816 67.9521 317.115 67.5654L318.108 68.3389C317.312 69.5635 316.116 70.1758 314.522 70.1758ZM314.32 61.6504C313.664 61.6504 313.113 61.8906 312.668 62.3711C312.223 62.8457 311.947 63.5137 311.842 64.375H316.605V64.252C316.559 63.4258 316.336 62.7871 315.938 62.3359C315.539 61.8789 315 61.6504 314.32 61.6504ZM327.891 70H326.265V65.9395H321.896V70H320.262V60.4902H321.896V64.6123H326.265V60.4902H327.891V70ZM336.662 60.4902H338.288V70H336.662V63.0654L332.276 70H330.65V60.4902H332.276V67.4336L336.662 60.4902ZM348.167 60.4902V70H346.532V66.2998H344.08L341.839 70H340.081L342.472 66.0537C341.862 65.8311 341.394 65.4883 341.065 65.0254C340.743 64.5566 340.582 64.0117 340.582 63.3906C340.582 62.5234 340.907 61.8262 341.558 61.2988C342.208 60.7656 343.078 60.4961 344.168 60.4902H348.167ZM342.217 63.4082C342.217 63.8711 342.375 64.2461 342.691 64.5332C343.008 64.8145 343.427 64.958 343.948 64.9639H346.532V61.8086H344.194C343.591 61.8086 343.11 61.958 342.753 62.2568C342.396 62.5498 342.217 62.9336 342.217 63.4082Z" fill="black"/>
<g clip-path="url(#clip2_14_320)">
<path d="M18.6666 96.6667H5.33329C3.85329 96.6667 2.66663 97.8667 2.66663 99.3334V112.667H5.33329V99.3334H18.6666V96.6667ZM24 102H10.6666C9.18663 102 7.99996 103.2 7.99996 104.667V118H10.6666V104.667H24V102ZM26.6666 107.333H16C14.52 107.333 13.3333 108.533 13.3333 110V120.667C13.3333 122.133 14.52 123.333 16 123.333H26.6666C28.1333 123.333 29.3333 122.133 29.3333 120.667V110C29.3333 108.533 28.1333 107.333 26.6666 107.333Z" fill="black"/>
</g>
<path d="M51.29 105.592H45.1201V109.424H48.3018C49.6377 109.441 50.6807 109.784 51.4307 110.452C52.1807 111.12 52.5557 112.028 52.5557 113.177C52.5557 114.331 52.1777 115.251 51.4219 115.937C50.666 116.622 49.6348 116.977 48.3281 117H43.4238V104.203H51.29V105.592ZM45.1201 110.812V115.62H48.2051C49.043 115.62 49.6934 115.397 50.1562 114.952C50.625 114.507 50.8594 113.909 50.8594 113.159C50.8594 112.438 50.6338 111.87 50.1826 111.454C49.7373 111.038 49.1016 110.824 48.2754 110.812H45.1201ZM56.3613 110.769H58.8311C59.9092 110.78 60.7617 111.062 61.3887 111.612C62.0156 112.163 62.3291 112.91 62.3291 113.854C62.3291 114.803 62.0068 115.564 61.3623 116.139C60.7178 116.713 59.8506 117 58.7607 117H54.7354V107.49H56.3613V110.769ZM65.7217 117H64.0869V107.49H65.7217V117ZM56.3613 112.096V115.673H58.7783C59.3877 115.673 59.8594 115.518 60.1934 115.207C60.5273 114.891 60.6943 114.46 60.6943 113.915C60.6943 113.388 60.5303 112.957 60.2021 112.623C59.8799 112.283 59.4258 112.107 58.8398 112.096H56.3613ZM72.375 115.849C72.9551 115.849 73.4619 115.673 73.8955 115.321C74.3291 114.97 74.5693 114.53 74.6162 114.003H76.1543C76.125 114.548 75.9375 115.066 75.5918 115.559C75.2461 116.051 74.7832 116.443 74.2031 116.736C73.6289 117.029 73.0195 117.176 72.375 117.176C71.0801 117.176 70.0488 116.745 69.2812 115.884C68.5195 115.017 68.1387 113.833 68.1387 112.333V112.061C68.1387 111.135 68.3086 110.312 68.6484 109.591C68.9883 108.87 69.4746 108.311 70.1074 107.912C70.7461 107.514 71.499 107.314 72.3662 107.314C73.4326 107.314 74.3174 107.634 75.0205 108.272C75.7295 108.911 76.1074 109.74 76.1543 110.76H74.6162C74.5693 110.145 74.335 109.641 73.9131 109.248C73.4971 108.85 72.9814 108.65 72.3662 108.65C71.54 108.65 70.8984 108.949 70.4414 109.547C69.9902 110.139 69.7646 110.997 69.7646 112.122V112.43C69.7646 113.525 69.9902 114.369 70.4414 114.961C70.8926 115.553 71.5371 115.849 72.375 115.849ZM85.0488 108.809H81.8584V117H80.2324V108.809H77.1035V107.49H85.0488V108.809ZM94.6641 112.351C94.6641 113.798 94.333 114.964 93.6709 115.849C93.0088 116.733 92.1123 117.176 90.9814 117.176C89.8271 117.176 88.9189 116.81 88.2568 116.077V120.656H86.6309V107.49H88.1162L88.1953 108.545C88.8574 107.725 89.7773 107.314 90.9551 107.314C92.0977 107.314 93 107.745 93.6621 108.606C94.3301 109.468 94.6641 110.666 94.6641 112.201V112.351ZM93.0381 112.166C93.0381 111.094 92.8096 110.247 92.3525 109.626C91.8955 109.005 91.2686 108.694 90.4717 108.694C89.4873 108.694 88.749 109.131 88.2568 110.004V114.548C88.7432 115.415 89.4873 115.849 90.4893 115.849C91.2686 115.849 91.8867 115.541 92.3438 114.926C92.8066 114.305 93.0381 113.385 93.0381 112.166ZM98.5137 110.769H100.983C102.062 110.78 102.914 111.062 103.541 111.612C104.168 112.163 104.481 112.91 104.481 113.854C104.481 114.803 104.159 115.564 103.515 116.139C102.87 116.713 102.003 117 100.913 117H96.8877V107.49H98.5137V110.769ZM107.874 117H106.239V107.49H107.874V117ZM98.5137 112.096V115.673H100.931C101.54 115.673 102.012 115.518 102.346 115.207C102.68 114.891 102.847 114.46 102.847 113.915C102.847 113.388 102.683 112.957 102.354 112.623C102.032 112.283 101.578 112.107 100.992 112.096H98.5137ZM114.659 117.176C113.37 117.176 112.321 116.754 111.513 115.91C110.704 115.061 110.3 113.927 110.3 112.509V112.21C110.3 111.267 110.479 110.426 110.836 109.688C111.199 108.943 111.703 108.363 112.348 107.947C112.998 107.525 113.701 107.314 114.457 107.314C115.693 107.314 116.654 107.722 117.34 108.536C118.025 109.351 118.368 110.517 118.368 112.034V112.711H111.926C111.949 113.648 112.222 114.407 112.743 114.987C113.271 115.562 113.938 115.849 114.747 115.849C115.321 115.849 115.808 115.731 116.206 115.497C116.604 115.263 116.953 114.952 117.252 114.565L118.245 115.339C117.448 116.563 116.253 117.176 114.659 117.176ZM114.457 108.65C113.801 108.65 113.25 108.891 112.805 109.371C112.359 109.846 112.084 110.514 111.979 111.375H116.742V111.252C116.695 110.426 116.473 109.787 116.074 109.336C115.676 108.879 115.137 108.65 114.457 108.65ZM124.644 115.673L125.206 114.979C125.839 114.158 126.199 112.928 126.287 111.287L126.437 107.49H132.562V115.673H133.784V119.795H132.158V117H125.522V119.795H123.896L123.905 115.673H124.644ZM126.568 115.673H130.937V108.993H128.01L127.913 111.261C127.813 113.153 127.365 114.624 126.568 115.673ZM135.735 117V107.49H139.444C140.71 107.49 141.68 107.713 142.354 108.158C143.033 108.598 143.373 109.245 143.373 110.101C143.373 110.54 143.241 110.938 142.978 111.296C142.714 111.647 142.324 111.917 141.809 112.104C142.383 112.239 142.843 112.503 143.188 112.896C143.54 113.288 143.716 113.757 143.716 114.302C143.716 115.175 143.394 115.843 142.749 116.306C142.11 116.769 141.205 117 140.033 117H135.735ZM137.361 112.825V115.69H140.051C140.73 115.69 141.237 115.564 141.571 115.312C141.911 115.061 142.081 114.706 142.081 114.249C142.081 113.3 141.384 112.825 139.989 112.825H137.361ZM137.361 111.524H139.462C140.985 111.524 141.747 111.079 141.747 110.188C141.747 109.298 141.026 108.838 139.585 108.809H137.361V111.524ZM152.021 107.49H153.647V117H152.021V110.065L147.636 117H146.01V107.49H147.636V114.434L152.021 107.49ZM163.843 112.869H162.7V117H161.074V112.869H159.932L157.269 117H155.212L158.613 112.078L155.537 107.49H157.506L159.958 111.428H161.074V107.49H162.7V111.428H163.808L166.277 107.49H168.246L165.161 112.087L168.562 117H166.506L163.843 112.869ZM173.81 117.176C172.521 117.176 171.472 116.754 170.663 115.91C169.854 115.061 169.45 113.927 169.45 112.509V112.21C169.45 111.267 169.629 110.426 169.986 109.688C170.35 108.943 170.854 108.363 171.498 107.947C172.148 107.525 172.852 107.314 173.607 107.314C174.844 107.314 175.805 107.722 176.49 108.536C177.176 109.351 177.519 110.517 177.519 112.034V112.711H171.076C171.1 113.648 171.372 114.407 171.894 114.987C172.421 115.562 173.089 115.849 173.897 115.849C174.472 115.849 174.958 115.731 175.356 115.497C175.755 115.263 176.104 114.952 176.402 114.565L177.396 115.339C176.599 116.563 175.403 117.176 173.81 117.176ZM173.607 108.65C172.951 108.65 172.4 108.891 171.955 109.371C171.51 109.846 171.234 110.514 171.129 111.375H175.893V111.252C175.846 110.426 175.623 109.787 175.225 109.336C174.826 108.879 174.287 108.65 173.607 108.65ZM187.178 117H185.552V112.939H181.184V117H179.549V107.49H181.184V111.612H185.552V107.49H187.178V117ZM195.949 107.49H197.575V117H195.949V110.065L191.563 117H189.938V107.49H191.563V114.434L195.949 107.49ZM207.454 107.49V117H205.819V113.3H203.367L201.126 117H199.368L201.759 113.054C201.149 112.831 200.681 112.488 200.353 112.025C200.03 111.557 199.869 111.012 199.869 110.391C199.869 109.523 200.194 108.826 200.845 108.299C201.495 107.766 202.365 107.496 203.455 107.49H207.454ZM201.504 110.408C201.504 110.871 201.662 111.246 201.979 111.533C202.295 111.814 202.714 111.958 203.235 111.964H205.819V108.809H203.481C202.878 108.809 202.397 108.958 202.04 109.257C201.683 109.55 201.504 109.934 201.504 110.408ZM220.682 107.49H222.308V117H220.682V110.065L216.296 117H214.67V107.49H216.296V114.434L220.682 107.49ZM237.161 117H235.535V108.835H231.158V117H229.523V107.49H237.161V117ZM247.567 107.49V117H245.933V108.835H242.698L242.505 112.395C242.399 114.029 242.124 115.198 241.679 115.901C241.239 116.604 240.539 116.971 239.578 117H238.928V115.567L239.394 115.532C239.921 115.474 240.299 115.169 240.527 114.618C240.756 114.067 240.902 113.048 240.967 111.56L241.143 107.49H247.567ZM256.049 117C255.955 116.812 255.879 116.479 255.82 115.998C255.064 116.783 254.162 117.176 253.113 117.176C252.176 117.176 251.405 116.912 250.802 116.385C250.204 115.852 249.905 115.178 249.905 114.363C249.905 113.373 250.28 112.605 251.03 112.061C251.786 111.51 252.847 111.234 254.212 111.234H255.794V110.487C255.794 109.919 255.624 109.468 255.284 109.134C254.944 108.794 254.443 108.624 253.781 108.624C253.201 108.624 252.715 108.771 252.322 109.063C251.93 109.356 251.733 109.711 251.733 110.127H250.099C250.099 109.652 250.266 109.195 250.6 108.756C250.939 108.311 251.396 107.959 251.971 107.701C252.551 107.443 253.187 107.314 253.878 107.314C254.974 107.314 255.832 107.59 256.453 108.141C257.074 108.686 257.396 109.438 257.42 110.399V114.776C257.42 115.649 257.531 116.344 257.754 116.859V117H256.049ZM253.351 115.761C253.86 115.761 254.344 115.629 254.801 115.365C255.258 115.102 255.589 114.759 255.794 114.337V112.386H254.52C252.527 112.386 251.531 112.969 251.531 114.135C251.531 114.645 251.701 115.043 252.041 115.33C252.381 115.617 252.817 115.761 253.351 115.761ZM260.118 117V107.49H263.827C265.093 107.49 266.062 107.713 266.736 108.158C267.416 108.598 267.756 109.245 267.756 110.101C267.756 110.54 267.624 110.938 267.36 111.296C267.097 111.647 266.707 111.917 266.191 112.104C266.766 112.239 267.226 112.503 267.571 112.896C267.923 113.288 268.099 113.757 268.099 114.302C268.099 115.175 267.776 115.843 267.132 116.306C266.493 116.769 265.588 117 264.416 117H260.118ZM261.744 112.825V115.69H264.434C265.113 115.69 265.62 115.564 265.954 115.312C266.294 115.061 266.464 114.706 266.464 114.249C266.464 113.3 265.767 112.825 264.372 112.825H261.744ZM261.744 111.524H263.845C265.368 111.524 266.13 111.079 266.13 110.188C266.13 109.298 265.409 108.838 263.968 108.809H261.744V111.524ZM278.021 117H276.396V112.939H272.027V117H270.393V107.49H272.027V111.612H276.396V107.49H278.021V117ZM282.416 110.769H284.886C285.964 110.78 286.816 111.062 287.443 111.612C288.07 112.163 288.384 112.91 288.384 113.854C288.384 114.803 288.062 115.564 287.417 116.139C286.772 116.713 285.905 117 284.815 117H280.79V107.49H282.416V110.769ZM291.776 117H290.142V107.49H291.776V117ZM282.416 112.096V115.673H284.833C285.442 115.673 285.914 115.518 286.248 115.207C286.582 114.891 286.749 114.46 286.749 113.915C286.749 113.388 286.585 112.957 286.257 112.623C285.935 112.283 285.48 112.107 284.895 112.096H282.416ZM300.768 107.49H302.394V117H300.768V110.065L296.382 117H294.756V107.49H296.382V114.434L300.768 107.49ZM301.207 104.027C301.207 104.736 300.964 105.308 300.478 105.741C299.997 106.169 299.364 106.383 298.579 106.383C297.794 106.383 297.158 106.166 296.672 105.732C296.186 105.299 295.942 104.73 295.942 104.027H297.27C297.27 104.438 297.381 104.76 297.604 104.994C297.826 105.223 298.151 105.337 298.579 105.337C298.989 105.337 299.309 105.223 299.537 104.994C299.771 104.766 299.889 104.443 299.889 104.027H301.207ZM315.612 108.835H311.227V117H309.592V107.49H315.612V108.835ZM320.798 117.176C319.509 117.176 318.46 116.754 317.651 115.91C316.843 115.061 316.438 113.927 316.438 112.509V112.21C316.438 111.267 316.617 110.426 316.975 109.688C317.338 108.943 317.842 108.363 318.486 107.947C319.137 107.525 319.84 107.314 320.596 107.314C321.832 107.314 322.793 107.722 323.479 108.536C324.164 109.351 324.507 110.517 324.507 112.034V112.711H318.064C318.088 113.648 318.36 114.407 318.882 114.987C319.409 115.562 320.077 115.849 320.886 115.849C321.46 115.849 321.946 115.731 322.345 115.497C322.743 115.263 323.092 114.952 323.391 114.565L324.384 115.339C323.587 116.563 322.392 117.176 320.798 117.176ZM320.596 108.65C319.939 108.65 319.389 108.891 318.943 109.371C318.498 109.846 318.223 110.514 318.117 111.375H322.881V111.252C322.834 110.426 322.611 109.787 322.213 109.336C321.814 108.879 321.275 108.65 320.596 108.65ZM332.549 107.49H334.175V117H332.549V110.065L328.163 117H326.537V107.49H328.163V114.434L332.549 107.49ZM332.988 104.027C332.988 104.736 332.745 105.308 332.259 105.741C331.778 106.169 331.146 106.383 330.36 106.383C329.575 106.383 328.939 106.166 328.453 105.732C327.967 105.299 327.724 104.73 327.724 104.027H329.051C329.051 104.438 329.162 104.76 329.385 104.994C329.607 105.223 329.933 105.337 330.36 105.337C330.771 105.337 331.09 105.223 331.318 104.994C331.553 104.766 331.67 104.443 331.67 104.027H332.988ZM342.261 114.847L345.495 107.49H347.525V117H345.899V110.083L342.823 117H341.698L338.561 109.934V117H336.935V107.49H339.044L342.261 114.847ZM357.923 117H356.297V108.835H351.92V117H350.285V107.49H357.923V117ZM368.329 107.49V117H366.694V108.835H363.46L363.267 112.395C363.161 114.029 362.886 115.198 362.44 115.901C362.001 116.604 361.301 116.971 360.34 117H359.689V115.567L360.155 115.532C360.683 115.474 361.061 115.169 361.289 114.618C361.518 114.067 361.664 113.048 361.729 111.56L361.904 107.49H368.329ZM374.886 117.176C373.597 117.176 372.548 116.754 371.739 115.91C370.931 115.061 370.526 113.927 370.526 112.509V112.21C370.526 111.267 370.705 110.426 371.062 109.688C371.426 108.943 371.93 108.363 372.574 107.947C373.225 107.525 373.928 107.314 374.684 107.314C375.92 107.314 376.881 107.722 377.566 108.536C378.252 109.351 378.595 110.517 378.595 112.034V112.711H372.152C372.176 113.648 372.448 114.407 372.97 114.987C373.497 115.562 374.165 115.849 374.974 115.849C375.548 115.849 376.034 115.731 376.433 115.497C376.831 115.263 377.18 114.952 377.479 114.565L378.472 115.339C377.675 116.563 376.479 117.176 374.886 117.176ZM374.684 108.65C374.027 108.65 373.477 108.891 373.031 109.371C372.586 109.846 372.311 110.514 372.205 111.375H376.969V111.252C376.922 110.426 376.699 109.787 376.301 109.336C375.902 108.879 375.363 108.65 374.684 108.65ZM386.637 107.49H388.263V117H386.637V110.065L382.251 117H380.625V107.49H382.251V114.434L386.637 107.49ZM387.076 104.027C387.076 104.736 386.833 105.308 386.347 105.741C385.866 106.169 385.233 106.383 384.448 106.383C383.663 106.383 383.027 106.166 382.541 105.732C382.055 105.299 381.812 104.73 381.812 104.027H383.139C383.139 104.438 383.25 104.76 383.473 104.994C383.695 105.223 384.021 105.337 384.448 105.337C384.858 105.337 385.178 105.223 385.406 104.994C385.641 104.766 385.758 104.443 385.758 104.027H387.076Z" fill="black"/>
<defs>
<clipPath id="clip0_14_320">
<rect width="32" height="32" fill="white"/>
</clipPath>
<clipPath id="clip1_14_320">
<rect width="32" height="32" fill="white" transform="translate(0 47)"/>
</clipPath>
<clipPath id="clip2_14_320">
<rect width="32" height="32" fill="white" transform="translate(0 94)"/>
</clipPath>
</defs>
</svg>
